<?xml version="1.0" encoding="UTF-8" standalone="no"?>
<!-- Created with Inkscape (http://www.inkscape.org/) -->

<svg
   xmlns:dc="http://purl.org/dc/elements/1.1/"
   xmlns:cc="http://creativecommons.org/ns#"
   xmlns:rdf="http://www.w3.org/1999/02/22-rdf-syntax-ns#"
   xmlns:svg="http://www.w3.org/2000/svg"
   xmlns="http://www.w3.org/2000/svg"
   xmlns:sodipodi="http://sodipodi.sourceforge.net/DTD/sodipodi-0.dtd"
   xmlns:inkscape="http://www.inkscape.org/namespaces/inkscape"
   width="120.15859mm"
   height="123.74774mm"
   viewBox="0 0 425.75879 438.47625"
   id="svg2"
   version="1.1"
   inkscape:version="0.91 r13725"
   sodipodi:docname="tm_logo.svg">
  <defs
     id="defs4" />
  <sodipodi:namedview
     id="base"
     pagecolor="#ffffff"
     bordercolor="#666666"
     borderopacity="1.0"
     inkscape:pageopacity="0.0"
     inkscape:pageshadow="2"
     inkscape:zoom="1"
     inkscape:cx="182.19094"
     inkscape:cy="142.19537"
     inkscape:document-units="px"
     inkscape:current-layer="layer1"
     showgrid="false"
     fit-margin-left="10"
     fit-margin-top="10"
     fit-margin-right="10"
     fit-margin-bottom="10"
     inkscape:window-width="1920"
     inkscape:window-height="1056"
     inkscape:window-x="0"
     inkscape:window-y="24"
     inkscape:window-maximized="1" />
  <metadata
     id="metadata7">
    <rdf:RDF>
      <cc:Work
         rdf:about="">
        <dc:format>image/svg+xml</dc:format>
        <dc:type
           rdf:resource="http://purl.org/dc/dcmitype/StillImage" />
        <dc:title></dc:title>
      </cc:Work>
    </rdf:RDF>
  </metadata>
  <g
     inkscape:label="Layer 1"
     inkscape:groupmode="layer"
     id="layer1"
     transform="translate(-185.49503,-223.89294)">
    <path
       id="path4203"
       style="fill:#000000"
       d="m 225.3603,626.92687 c -0.39996,0.43661 -1.03973,-14.63839 -1.42173,-33.5 -0.382,-18.8616 -1.15852,-45.31882 -1.7256,-58.79382 -0.56707,-13.475 -0.97232,-37.325 -0.90054,-53 0.0718,-15.675 -0.0472,-71.34438 -0.26449,-123.70973 -0.21724,-52.36535 -0.13082,-95.63716 0.19205,-96.15958 0.32287,-0.52242 1.71063,-0.93852 3.08391,-0.92467 1.37327,0.0138 11.09664,-0.32092 21.60747,-0.74394 l 19.11062,-0.76912 -1.37398,9.40352 c -1.38217,9.45965 -2.5194,14.99208 -6.8663,33.40352 -6.41328,27.16363 -7.34429,33.0306 -8.69787,54.81167 -1.15432,18.57445 -0.18619,43.8224 2.17369,56.68833 0.45397,2.475 1.63694,8.94142 2.62882,14.36982 1.68777,9.23693 1.98332,9.93254 4.60891,10.84783 4.06082,1.41561 3.45903,2.42093 -1.8879,3.1538 -5.05281,0.69257 -9.3066,3.79143 -9.3066,6.77981 0,2.46697 3.63047,4.57096 8.86835,5.13953 4.51636,0.49024 6.03749,1.77049 6.18934,5.20921 0.0486,1.1 0.43284,4.4253 0.85393,7.38955 0.65803,4.63212 0.5775,5.13227 -0.573,3.55887 -0.73624,-1.00688 -1.33862,-2.24386 -1.33862,-2.74885 0,-0.51084 -3.37821,-0.74758 -7.61491,-0.53363 -7.03441,0.35522 -7.79636,0.61131 -9.99504,3.3593 -2.90763,3.63407 -3.06149,7.55714 -0.39115,9.97376 3.06816,2.77665 27.08427,6.55962 37.3906,5.88968 7.52447,-0.48911 7.9684,-0.41246 6.14382,1.06074 -1.93998,1.56638 -1.94151,1.6861 -0.11292,8.81926 1.01957,3.97723 2.07245,7.90632 2.33972,8.73132 0.26728,0.825 -0.21679,0.56335 -1.07572,-0.58144 -0.85893,-1.1448 -1.86719,-3.29866 -2.24058,-4.78636 -0.66895,-2.66535 -0.76861,-2.69565 -6.81135,-2.07114 -13.53047,1.39834 -19.63247,4.04261 -19.63247,8.50762 0,2.4941 1.84992,3.64019 10.59721,6.56537 7.41944,2.48113 9.33597,2.6715 31.33519,3.11253 14.99687,0.30065 22.8417,0.80034 21.79154,1.38804 -3.94589,2.20823 2.80416,7.34798 7.8831,6.00249 1.67778,-0.44446 3.44094,-1.89436 4.19753,-3.45175 1.08096,-2.22508 1.96654,-2.68536 5.16666,-2.68536 2.18387,0 4.05695,-0.54317 4.3105,-1.25 0.26092,-0.72736 1.21881,0.0647 2.29099,1.89438 1.01343,1.72941 2.93034,3.80439 4.25981,4.61106 2.0753,1.25922 2.80901,1.27123 5.18712,0.0849 1.52344,-0.75999 3.25596,-1.96748 3.85004,-2.6833 0.81867,-0.98643 2.72024,-1.1078 7.85523,-0.50139 14.90362,1.76003 50.95625,4.84471 56.68444,4.84996 6.76209,0.006 12.17745,1.23092 15.13683,3.42332 1.93572,1.43404 1.93529,1.46116 -0.0462,2.92923 -2.01529,1.49309 -17.9833,6.64184 -20.59867,6.64184 -0.77408,0 -7.00709,2.7433 -13.85114,6.09622 -13.15903,6.44665 -18.37964,10.78752 -23.74592,19.74446 -2.37761,3.9685 -2.52358,4.82593 -1.70242,10 0.86419,5.44525 1.00553,5.64791 3.73663,5.3576 3.48004,-0.36991 9.7704,-3.48823 16.95244,-8.40382 3.23097,-2.21137 8.42064,-4.51125 12.87034,-5.70368 4.10094,-1.09897 11.02793,-3.4283 15.3933,-5.17628 12.07548,-4.83526 19.68577,-6.58952 34.25988,-7.8973 16.29229,-1.46197 25.30074,-4.21076 45.26485,-13.81185 7.9314,-3.81435 17.34572,-8.08605 20.92072,-9.49267 8.14412,-3.20439 21.21437,-5.71268 29.7677,-5.71268 l 6.54677,0 -0.79444,46.75 c -0.98372,57.8888 -0.89797,54.95867 -1.62982,55.69194 -107.6012,1.08325 -235.55942,0.10243 -336.85067,2.85188 z M 566.32076,490.84338 c 0,-15.89457 -0.28923,-33.62636 -0.64274,-39.40397 l -0.64274,-10.50475 4.3736,-0.58662 c 2.40548,-0.32265 4.4451,-0.50301 4.53249,-0.40082 0.21099,0.24673 1.31333,43.00218 1.62909,63.18581 l 0.2503,16 -4.75,0.30479 -4.75,0.30479 z m -226.18045,12.55681 c -0.25995,-1.81639 -1.05608,-2.2887 -4.26861,-2.53239 -4.3766,-0.33198 -5.58291,-0.97895 -3.8371,-2.05792 0.63576,-0.39292 1.4682,-3.06845 1.84987,-5.94562 l 0.69395,-5.23123 7.12117,0.0318 c 6.47948,0.0289 6.94625,0.16411 5.18004,1.5 -1.06762,0.80751 -2.80431,1.4682 -3.8593,1.4682 -1.75405,0 -1.88577,0.64169 -1.53944,7.5 0.20831,4.125 0.0638,7.5 -0.32115,7.5 -0.38493,0 -0.84368,-1.00478 -1.01943,-2.23284 z m -40.09861,-1.26716 c 0.42848,-1.65 0.77906,-6.01564 0.77906,-9.70142 l 0,-6.70142 6.5,0.20142 6.5,0.20142 0.50322,-4 c 0.80773,-6.42044 1.99678,-1.60786 1.99678,8.08179 0,4.94547 0.41253,8.41821 1,8.41821 0.55,0 1,0.43588 1,0.96862 0,0.53273 -0.5625,0.79303 -1.25,0.57844 -0.6875,-0.2146 -4.00806,-0.66666 -7.37902,-1.00459 -6.0871,-0.61021 -6.14374,-0.59193 -8.27906,2.67156 l -2.15004,3.28597 z m 61.96258,1.11765 c -0.37594,-0.97967 -0.68352,-4.82992 -0.68352,-8.55611 l 0,-6.77488 5.25,0.34673 c 5.48167,0.36203 16.98519,2.07465 20.00106,2.97772 3.00052,0.89848 3.99981,4.00308 2.32866,7.23472 -1.26154,2.43956 -2.26616,2.95819 -6.78035,3.50034 -2.91465,0.35004 -8.29937,0.64036 -11.96604,0.64514 -4.28773,0.006 -6.80933,0.4367 -7.06648,1.20813 -0.24338,0.73014 -0.66725,0.50251 -1.08333,-0.58179 z m -26.60356,-32.11765 c -0.0836,-0.55 -0.41391,-3.5875 -0.73398,-6.75 l -0.58194,-5.75 3.61798,0 c 3.53441,0 3.61798,0.0894 3.61798,3.87219 0,3.75525 0.12835,3.89792 4.25,4.72391 4.21803,0.84531 4.1997,0.85413 -2.43519,1.17202 -5.28788,0.25336 -6.779,0.67684 -7.134,2.02609 -0.24684,0.93819 -0.51723,1.25579 -0.60085,0.70579 z m 27.01972,-8.11506 c 0.1141,-7.8807 1.62585,-14.71052 1.80064,-8.13494 0.0988,3.71759 0.1357,3.75 4.26777,3.75 2.29244,0 7.12207,0.51441 10.7325,1.14314 5.17478,0.90115 7.15992,1.78063 9.37743,4.15449 1.54716,1.65623 2.45503,3.35621 2.0175,3.77773 -0.43754,0.42151 -6.98302,1.08772 -14.54552,1.48046 l -13.75,0.71407 0.0997,-6.88495 z m -86.02073,1.479 c -0.073,-4.28497 -0.344,-4.76183 -3.57895,-6.29692 -1.925,-0.91347 -3.5,-1.79869 -3.5,-1.96714 0,-0.16846 2.21168,-0.0938 4.91485,0.16596 4.55482,0.43766 4.94463,0.29871 5.32148,-1.89679 0.4023,-2.34383 0.41917,-2.33908 1.58515,0.44605 0.64818,1.5483 1.17852,4.8108 1.17852,7.25 0,4.02311 -0.22439,4.4349 -2.41667,4.4349 -1.32916,0 -2.64364,0.5625 -2.92105,1.25 -0.27741,0.6875 -0.53991,-0.83623 -0.58333,-3.38606 z m 22.42105,1.15631 -3,-0.78362 2.75,-0.11832 c 2.52195,-0.1085 2.75,-0.45002 2.75,-4.11831 l 0,-4 7.75,0.0153 c 4.2625,0.008 8.425,0.45153 9.25,0.98469 1.21963,0.78818 1.09073,0.97224 -0.68963,0.98469 -1.80504,0.0126 -2.24415,0.67398 -2.5,3.76531 l -0.31037,3.75001 -6.5,0.15194 c -3.575,0.0836 -7.85,-0.20069 -9.5,-0.63169 z m 0.19912,-24.59878 -0.75963,-6.07852 -5.46975,-2.26709 c -3.00835,-1.24689 -5.46974,-2.67405 -5.46974,-3.17147 0,-1.22225 0.15025,-1.19087 5.1408,1.07365 4.82478,2.1893 18.8592,2.90589 18.8592,0.96294 0,-0.58246 0.45,-0.7809 1,-0.44098 0.55,0.33992 1,2.84148 1,5.55902 l 0,4.94098 -6.43358,0 c -6.27007,0 -6.44214,0.0699 -6.77062,2.75 -0.20908,1.70596 -0.62544,0.44228 -1.09668,-3.32853 z m 42.18246,3.32853 c -0.0651,-1.2375 -0.0651,-2.5875 0,-3 0.0651,-0.4125 -3.10658,-0.75 -7.04825,-0.75 -6.52332,0 -8.75668,-0.75666 -4.17496,-1.41448 1.26151,-0.18112 1.94034,-1.26 2.15499,-3.42497 l 0.31336,-3.16055 6.99566,0 c 4.40912,0 6.76715,0.36973 6.37762,1 -0.33992,0.55 -1.4488,1 -2.46419,1 -1.6502,0 -1.78841,0.63687 -1.30209,6 0.29923,3.3 0.25656,6 -0.0948,6 -0.35139,0 -0.69218,-1.0125 -0.75731,-2.25 z m -70.36427,-8 c -0.36871,-2.8875 -1.53593,-9.68613 -2.59384,-15.10806 -1.05791,-5.42193 -1.92347,-13.62733 -1.92347,-18.23422 0,-7.72757 0.21294,-8.61362 2.75,-11.44267 2.43254,-2.71252 2.96242,-2.9103 4.59009,-1.71332 1.62642,1.19606 1.94489,3.72763 2.74248,21.80073 0.49632,11.24615 1.34504,22.24754 1.88605,24.44754 1.38241,5.62146 1.4459,5.5 -2.87478,5.5 l -3.90616,0 z m 93.48269,0.68272 0,-4.72619 7.65088,0.64673 c 4.20798,0.35571 10.05798,0.64674 13,0.64674 5.07196,0 5.34912,0.13259 5.34912,2.55902 0,1.40746 -0.3375,2.36506 -0.75,2.12799 -0.75456,-0.43364 -16.54549,1.56007 -22.2095,2.80409 l -3.0405,0.66781 z m 186.5,2.06104 c -0.55,-0.19159 -8.65,-2.39027 -18,-4.88596 -14.74798,-3.93652 -22.92637,-5.69919 -49,-10.56088 -2.75,-0.51276 -7.475,-1.21051 -10.5,-1.55054 -9.15449,-1.02904 -40.14705,-5.50403 -45.75,-6.60581 -2.8875,-0.5678 -5.25,-1.45046 -5.25,-1.96147 0,-0.511 0.45,-0.9291 1,-0.9291 2.15014,0 0.77788,-3.08301 -4.29424,-9.64776 -6.42477,-8.31547 -11.70576,-16.57306 -11.70576,-18.30363 0,-0.70197 -0.87121,-2.91257 -1.93602,-4.91246 -4.90867,-9.21926 -10.18579,-23.07369 -11.61444,-30.49231 -0.86257,-4.47911 -2.20481,-11.10589 -2.98276,-14.72618 -0.77794,-3.62029 -2.10884,-11.04529 -2.95754,-16.5 -4.37527,-28.12019 -7.46643,-38.33079 -15.98834,-52.81213 l -2.88027,-4.89446 13.92969,0.77798 c 7.66132,0.42789 50.19369,0.69183 94.51636,0.58653 l 80.58668,-0.19146 0.66914,54.80794 c 0.36802,30.14437 1.13163,63.80794 1.6969,74.80794 0.56527,11 1.35246,26.4125 1.74931,34.25 l 0.72156,14.25 -5.50513,-0.079 c -3.02783,-0.0434 -5.95514,-0.2357 -6.50514,-0.42729 z M 291.87963,418.16483 c 1.06762,-0.8075 2.50363,-1.4825 3.19113,-1.5 0.91399,-0.0232 1.25,-2.70241 1.25,-9.9667 0,-13.65563 1.9447,-17.95882 8.14962,-18.0333 2.48442,-0.0298 2.74708,0.42023 4.21276,7.2182 0.85972,3.9875 1.8544,10.42488 2.2104,14.30528 l 0.64727,7.05528 -8.97336,1.19472 c -4.93535,0.6571 -9.79587,1.19472 -10.80116,1.19472 -1.71892,0 -1.71217,-0.0874 0.11334,-1.4682 z m 45.19113,-3.26027 -3.75,-0.39226 0.0318,-12.18964 c 0.0241,-9.23041 0.39476,-12.6698 1.5269,-14.16755 1.17103,-1.54919 1.86394,-1.74526 3.19672,-0.90456 2.07596,1.30948 2.91735,5.07982 3.82331,17.13248 0.64056,8.52194 0.8616,9.25121 2.80828,9.26531 1.73074,0.0126 1.84163,0.19068 0.61299,0.98469 -0.825,0.53316 -2.175,0.90062 -3,0.81658 -0.825,-0.084 -3.1875,-0.3293 -5.25,-0.54505 z m 27.66882,-3.73894 c -0.3406,-1.35708 -0.44936,-13.84458 -0.24168,-27.75 0.32387,-21.68558 0.62633,-25.74497 2.12591,-28.53259 0.96157,-1.7875 2.10256,-3.25 2.53554,-3.25 2.48,0 6.26964,6.75222 10.10241,18 2.3427,6.875 5.7572,15.2 7.58778,18.5 3.88005,6.9946 11.81329,16.14297 18.76158,21.63528 l 4.88924,3.86472 -22.57075,0 -22.57075,0 z"
       inkscape:connector-curvature="0"
       sodipodi:nodetypes="cssssscscssssssssscssssssssscsssssssssssssssscsssssssssssssscsccsscscscccssssscsssssssscccsssscsscssscsssscsscscsssssccsssscscccssssssssssscssccscscssscsssssscssscsssscsssssccsssssssscsccssscscccssssssssssssscsscsssccccccsssscsscscsssscscsssssssscccs" />
  </g>
</svg>
