<?xml version="1.0" encoding="UTF-8" standalone="no"?>
<!-- Created with Inkscape (http://www.inkscape.org/) -->

<svg
   xmlns:dc="http://purl.org/dc/elements/1.1/"
   xmlns:cc="http://creativecommons.org/ns#"
   xmlns:rdf="http://www.w3.org/1999/02/22-rdf-syntax-ns#"
   xmlns:svg="http://www.w3.org/2000/svg"
   xmlns="http://www.w3.org/2000/svg"
   xmlns:sodipodi="http://sodipodi.sourceforge.net/DTD/sodipodi-0.dtd"
   xmlns:inkscape="http://www.inkscape.org/namespaces/inkscape"
   width="132.60667mm"
   height="177.76222mm"
   viewBox="0 0 469.86617 629.86614"
   id="svg2"
   version="1.1"
   inkscape:version="0.91 r13725"
   sodipodi:docname="TMC-volunteers.svg">
  <defs
     id="defs4" />
  <sodipodi:namedview
     id="base"
     pagecolor="#ffffff"
     bordercolor="#666666"
     borderopacity="1.0"
     inkscape:pageopacity="0.0"
     inkscape:pageshadow="2"
     inkscape:zoom="0.7"
     inkscape:cx="128.18461"
     inkscape:cy="155.56294"
     inkscape:document-units="px"
     inkscape:current-layer="layer1"
     showgrid="false"
     fit-margin-left="10"
     fit-margin-top="10"
     fit-margin-right="10"
     fit-margin-bottom="10"
     inkscape:window-width="2560"
     inkscape:window-height="1416"
     inkscape:window-x="0"
     inkscape:window-y="24"
     inkscape:window-maximized="1" />
  <metadata
     id="metadata7">
    <rdf:RDF>
      <cc:Work
         rdf:about="">
        <dc:format>image/svg+xml</dc:format>
        <dc:type
           rdf:resource="http://purl.org/dc/dcmitype/StillImage" />
        <dc:title></dc:title>
      </cc:Work>
    </rdf:RDF>
  </metadata>
  <g
     inkscape:label="Layer 1"
     inkscape:groupmode="layer"
     id="layer1"
     transform="translate(-155.88769,-132.19996)">
    <path
       style="fill:#000000"
       d="m 191.32076,447.13303 0,-279.5 199.5,0 199.5,0 0,279.5 0,279.5 -199.5,0 -199.5,0 0,-279.5 z m 389.50135,120.75 c -0.3639,-83.4625 -0.80686,-170.875 -0.98434,-194.25 -0.17748,-23.375 -0.36642,-77.50018 -0.41985,-120.27817 l -0.0972,-77.77817 -186.91685,0.27817 c -102.80426,0.15299 -187.2618,0.62321 -187.68342,1.04493 -1.40915,1.40947 0.27646,408.37135 2.06364,498.23324 0.25158,12.65 0.47524,27.8375 0.49703,33.75 l 0.0396,10.75 187.0815,0 187.08149,0 -0.66164,-151.75 z m -52.3374,125.33062 c 0.18483,-6.28066 0.65276,-11.73488 1.03985,-12.12047 0.3871,-0.3856 2.72246,-0.39838 5.18969,-0.0284 3.93533,0.59014 4.60833,1.06516 5.48361,3.87047 0.91122,2.92051 3.1229,16.12112 3.1229,18.63932 0,0.65158 -2.91608,1.05845 -7.58605,1.05845 l -7.58606,0 0.33606,-11.41938 z m 22.44441,10.16938 c -0.18087,-0.6875 -1.09258,-5.2598 -2.02602,-10.16067 -0.93343,-4.90086 -2.34277,-10.15916 -3.13187,-11.68511 -1.32037,-2.55331 -1.27853,-2.82402 0.52494,-3.39641 1.07781,-0.34209 4.67427,-2.62036 7.99212,-5.06283 l 6.03247,-4.44084 0,16.79793 c 0,11.73172 -0.36192,17.15985 -1.2,17.99793 -1.58343,1.58343 -7.77183,1.54566 -8.19164,-0.05 z m -307.10836,-0.68338 -8,-0.56662 -0.67588,-4.5 c -0.37173,-2.475 -0.70923,-17.2125 -0.75,-32.75 l -0.0741,-28.25 2.75,0.009 c 2.50092,0.008 2.92242,0.57387 4.65359,6.25 1.04698,3.4328 2.48968,7.41833 3.20602,8.85673 0.71633,1.4384 1.50655,3.6884 1.75606,5 0.2495,1.3116 1.88732,6.20972 3.6396,10.88472 1.75228,4.675 3.7747,10.3 4.49426,12.5 0.71956,2.2 2.69265,7.825 4.38465,12.5 1.692,4.675 3.08524,9.0625 3.09609,9.75 0.0209,1.3262 -3.39899,1.38479 -18.48027,0.31662 z m 95.5,-0.0666 c -13.46967,-0.49888 -13.67643,-0.56133 -13.15,-3.97175 0.20871,-1.35208 28.37736,-0.85166 28.83094,0.51219 0.19031,0.57224 -0.22255,1.69724 -0.91746,2.5 -1.03338,1.19376 -3.722,1.3685 -14.76348,0.95956 z m 173.36568,-2.76531 c -0.62387,-0.40408 -1.30415,-1.63469 -1.51172,-2.73469 -0.34386,-1.8222 -1.28758,-2.02533 -10.61569,-2.28498 l -10.23827,-0.28499 0.0136,-3.71501 c 0.0307,-8.36054 0.0897,-8.4044 10.87321,-8.08461 l 9.61314,0.28508 0.31298,-2.67207 0.31298,-2.67206 -10.31298,-0.28568 c -9.97026,-0.27619 -10.32404,-0.36383 -10.64586,-2.63739 -0.18308,-1.29344 -0.0513,-3.47373 0.29291,-4.84507 0.61996,-2.47009 0.71404,-2.49013 10.08366,-2.14829 l 9.45786,0.34507 -7.8e-4,-2.75 c -0.001,-4.97226 2.84691,-4.49859 -28.75077,-4.78123 l -21.24995,-0.19007 0,-4.38935 0,-4.38935 10.39496,0 10.39497,0 0.38146,-4 0.38146,-4 -14.77642,0 -14.77643,0 0,-2.90589 0,-2.90589 -16.25,0.539 c -8.9375,0.29645 -16.29988,0.59159 -16.36084,0.65589 -0.061,0.0643 -0.40172,2.01652 -0.75724,4.33828 -0.54053,3.52993 -0.39687,4.12564 0.87702,3.6368 0.83789,-0.32152 4.05973,-0.2677 7.15964,0.11961 l 5.63621,0.70419 -0.70146,24.58388 c -0.3858,13.52113 -0.93093,24.95518 -1.21141,25.409 -0.28047,0.45382 -3.6334,0.82513 -7.45094,0.82513 l -6.94098,0 0,-24.56037 0,-24.56036 -3.61339,0.31036 -3.61339,0.31037 0.1193,14 0.11931,14 -3.31397,-6 c -1.82268,-3.3 -4.68146,-8.025 -6.35285,-10.5 -1.67138,-2.475 -3.87978,-5.9625 -4.90755,-7.75 -1.58687,-2.75988 -2.43619,-3.25 -5.63193,-3.25 l -3.76325,0 -0.27114,19.75 -0.27114,19.75 -7.75,0.14147 c -4.2625,0.0778 -7.75,-0.18125 -7.75,-0.57569 0,-0.39443 1.10228,-1.75269 2.44952,-3.01835 4.87617,-4.58093 6.63894,-10.3227 7.27009,-23.68042 l 0.58434,-12.36701 -3.00649,0 -3.00649,0 -0.52928,12.25565 c -0.45992,10.64945 -0.83939,12.73915 -2.89549,15.94488 -3.0914,4.81991 -4.0872,5.12512 -8.03708,2.4633 -4.71051,-3.17442 -5.59441,-5.64333 -6.38447,-17.83329 l -0.70196,-10.83054 -3.85601,0 -3.85602,0 0.51866,6.25 c 0.28526,3.4375 0.72706,8.21584 0.98178,10.61853 0.49714,4.68932 4.63918,14.90216 7.85559,19.36917 1.08418,1.50574 1.77821,2.85574 1.54228,3 -0.23594,0.14427 -6.05397,0.0373 -12.92897,-0.2377 l -12.5,-0.5 0,-28 0,-28 8.5,-0.67664 c 4.675,-0.37215 11.0875,-0.95699 14.25,-1.29965 3.1625,-0.34266 5.75,-0.2276 5.75,0.2557 0,1.11092 -8.4495,4.92326 -12.75,5.75268 -2.99736,0.57809 -3.25,0.927 -3.25,4.48835 0,2.12384 0.43245,4.12879 0.96099,4.45545 1.3321,0.82328 15.31743,-3.86297 20.37669,-6.82789 2.29061,-1.3424 5.02145,-3.38735 6.06852,-4.54436 1.88364,-2.08139 2.39656,-2.10344 48.49879,-2.08455 25.62725,0.0105 54.47001,0.49529 64.09501,1.07732 9.625,0.58202 30.55,1.36093 46.5,1.7309 l 29,0.67269 0.28893,8.75 c 0.15892,4.8125 -0.0661,8.74223 -0.5,8.73272 -0.43391,-0.009 -1.82351,-1.10837 -3.088,-2.44193 -1.26449,-1.33356 -4.41449,-3.61334 -7,-5.06618 -4.21736,-2.36979 -6.06393,-2.69978 -17.95093,-3.20785 l -13.25,-0.56632 0,28.14978 0,28.14978 -2.75,-0.0153 c -1.5125,-0.008 -3.26044,-0.34592 -3.88432,-0.75 z m -59.86568,-1.18236 -11,-0.55233 -0.80594,-23.86073 c -0.44327,-13.1234 -0.66827,-23.9938 -0.5,-24.15645 0.16827,-0.16266 2.46441,-0.61707 5.10255,-1.00981 l 4.79661,-0.71408 -0.29661,17.12182 -0.29661,17.12182 15.125,-10e-4 15.125,-0.001 0.625,3.125 c 1.20829,6.04145 0.73395,12.61921 -0.95679,13.26801 -1.68452,0.64641 -9.13824,0.55208 -26.91821,-0.34068 z m -52.24106,-0.79617 c -7.57099,-0.30937 -8.27728,-0.51643 -8.68642,-2.54646 -0.94007,-4.66421 -1.50634,-35.04252 -0.6364,-34.14004 0.49324,0.51169 5.18018,8.78309 10.41541,18.38089 8.5023,15.58734 10.13964,19.52348 7.83945,18.8459 -0.38004,-0.11195 -4.39946,-0.35508 -8.93204,-0.54029 z m -93.19639,-6.50694 c 5.64908,-5.15224 7.63474,-8.77071 8.748,-15.94154 0.80929,-5.21278 0.72516,-8.03755 -0.3805,-12.77713 -2.31446,-9.92121 -4.42387,-12.15477 -13.82006,-14.63343 -4.27641,-1.1281 -5.41633,-1.09969 -8.04613,0.20053 -7.67962,3.79695 -12.47276,14.97215 -11.10772,25.89762 0.54636,4.37289 1.85473,7.7169 7.33795,18.75473 0.20492,0.4125 -3.93992,0.75 -9.21076,0.75 -5.27083,0 -9.58333,-0.37641 -9.58333,-0.83646 0,-1.27595 5.53691,-27.56064 7.82855,-37.16354 1.11565,-4.675 2.40145,-10.75 2.85734,-13.5 l 0.82889,-5 4.99261,-0.66239 c 2.74594,-0.36432 12.14987,-0.70182 20.89764,-0.75 l 15.90503,-0.0876 -0.65503,13.65811 c -0.36027,7.51196 -0.65503,20.78696 -0.65503,29.5 l 0,15.84189 -9.75,-7.8e-4 -9.75,-7.8e-4 3.56255,-3.24922 z m -14.5633,-7.57592 c -4.73408,-7.16329 -4.20164,-20.56182 1.02479,-25.78825 3.05307,-3.05307 9.11913,-3.24017 12.73882,-0.39293 2.1156,1.66414 2.64913,3.15272 3.24049,9.04119 0.65878,6.55986 0.52404,7.32691 -1.94145,11.05251 -3.2627,4.93029 -6.92221,8.20013 -10.17039,9.08748 -2.07289,0.56627 -2.85053,0.0894 -4.89226,-3 z M 261.53333,679.907 c -8.02306,-22.34803 -13.56172,-41.30786 -12.37928,-42.37648 0.36669,-0.3314 6.33756,-0.39179 13.26859,-0.13422 l 12.60188,0.46833 -1.23974,5.63421 c -0.68185,3.09881 -2.68367,11.93421 -4.44848,19.63421 -1.76481,7.7 -3.55811,15.70534 -3.98512,17.78964 -0.427,2.0843 -0.99431,4.00758 -1.26067,4.27395 -0.26637,0.26636 -1.4171,-2.11397 -2.55718,-5.28964 z m 211.78743,-2.95825 c -3.025,-0.17288 -6.9625,-0.56003 -8.75,-0.86033 -3.02675,-0.50849 -3.25,-0.81765 -3.25,-4.50068 l 0,-3.95469 6.375,0 c 3.50625,0 7.78125,0.28125 9.5,0.625 2.92857,0.58571 3.125,0.9 3.125,5 0,2.40625 -0.3375,4.29176 -0.75,4.19002 -0.4125,-0.10174 -3.225,-0.32643 -6.25,-0.49932 z m 58.25,-5.34686 c -2.10378,-0.84562 -2.25,-1.49973 -2.25,-10.06545 l 0,-9.16105 5.08451,0.67448 c 2.79647,0.37097 7.47272,1.56803 10.39164,2.66014 9.15334,3.4247 9.89942,10.95287 1.50359,15.17149 -3.70128,1.85976 -11.0063,2.21703 -14.72974,0.72039 z M 235.76775,629.3555 c -0.45254,-1.17931 2.7131,-11.11914 7.39591,-23.22245 1.06398,-2.75 2.75666,-7.1375 3.7615,-9.75 1.00485,-2.6125 2.15954,-4.75 2.56599,-4.75 0.40644,0 1.04873,1.6875 1.42731,3.75 0.37858,2.0625 2.64897,10.47032 5.04531,18.68405 2.39635,8.21372 4.35699,15.30122 4.35699,15.75 0,0.44877 -5.41412,0.81595 -12.03138,0.81595 -8.84098,0 -12.16139,-0.33877 -12.52163,-1.27755 z m 30.11736,-6.84813 c 4.84031,-11.63459 15.53244,-33.11086 16.16806,-32.47524 0.46217,0.46216 6.41585,27.67338 7.95341,36.35092 l 0.57587,3.25 -10.38085,0.011 c -5.70946,0.006 -12.05025,0.28699 -14.09064,0.62431 l -3.7098,0.61332 3.48395,-8.37432 z m 38.54468,6.25492 c -2.02153,-0.56473 -2.81115,-2.13287 -5.11023,-10.14859 -1.49558,-5.21436 -3.50708,-13.08065 -4.46999,-17.48065 -0.96292,-4.4 -2.7895,-11.63752 -4.05908,-16.08338 -1.26958,-4.44585 -3.06639,-12.20835 -3.99292,-17.25 -0.92652,-5.04164 -2.01217,-9.16662 -2.41254,-9.16662 -0.40037,0 -2.45141,4.6125 -4.55787,10.25 -2.10646,5.6375 -5.78213,14.42512 -8.16816,19.52803 -2.38603,5.10292 -4.33824,9.43547 -4.33824,9.62788 0,1.37506 -3.23644,7.69098 -3.70233,7.2251 -0.32184,-0.32185 -3.1783,-11.05798 -6.34769,-23.85809 l -5.76252,-23.27292 -1.45456,3.5 c -0.80001,1.925 -2.70255,6.875 -4.22788,11 -1.52532,4.125 -3.37981,8.90087 -4.12109,10.61305 -0.74129,1.71218 -2.98081,8.01218 -4.97671,14 -4.16966,12.50915 -10.29993,28.51517 -11.36768,29.68077 -0.39996,0.43661 -1.03973,-14.63839 -1.42173,-33.5 -0.382,-18.8616 -1.15852,-45.31882 -1.7256,-58.79382 -0.56707,-13.475 -0.97232,-37.325 -0.90054,-53 0.0718,-15.675 -0.0472,-71.34438 -0.26449,-123.70973 -0.21724,-52.36535 -0.13082,-95.63716 0.19205,-96.15958 0.32287,-0.52242 1.71063,-0.93852 3.08391,-0.92467 1.37327,0.0138 11.09664,-0.32092 21.60747,-0.74394 l 19.11062,-0.76912 -1.37398,9.40352 c -1.38217,9.45965 -2.5194,14.99208 -6.8663,33.40352 -6.41328,27.16363 -7.34429,33.0306 -8.69787,54.81167 -1.15432,18.57445 -0.18619,43.8224 2.17369,56.68833 0.45397,2.475 1.63694,8.94142 2.62882,14.36982 1.68777,9.23693 1.98332,9.93254 4.60891,10.84783 4.06082,1.41561 3.45903,2.42093 -1.8879,3.1538 -5.05281,0.69257 -9.3066,3.79143 -9.3066,6.77981 0,2.46697 3.63047,4.57096 8.86835,5.13953 4.51636,0.49024 6.03749,1.77049 6.18934,5.20921 0.0486,1.1 0.43284,4.4253 0.85393,7.38955 0.65803,4.63212 0.5775,5.13227 -0.573,3.55887 -0.73624,-1.00688 -1.33862,-2.24386 -1.33862,-2.74885 0,-0.51084 -3.37821,-0.74758 -7.61491,-0.53363 -7.03441,0.35522 -7.79636,0.61131 -9.99504,3.3593 -2.90763,3.63407 -3.06149,7.55714 -0.39115,9.97376 3.06816,2.77665 27.08427,6.55962 37.3906,5.88968 7.52447,-0.48911 7.9684,-0.41246 6.14382,1.06074 -1.93998,1.56638 -1.94151,1.6861 -0.11292,8.81926 1.01957,3.97723 2.07245,7.90632 2.33972,8.73132 0.26728,0.825 -0.21679,0.56335 -1.07572,-0.58144 -0.85893,-1.1448 -1.86719,-3.29866 -2.24058,-4.78636 -0.66895,-2.66535 -0.76861,-2.69565 -6.81135,-2.07114 -13.53047,1.39834 -19.63247,4.04261 -19.63247,8.50762 0,2.4941 1.84992,3.64019 10.59721,6.56537 7.41944,2.48113 9.33597,2.6715 31.33519,3.11253 14.99687,0.30065 22.8417,0.80034 21.79154,1.38804 -3.94589,2.20823 2.80416,7.34798 7.8831,6.00249 1.67778,-0.44446 3.44094,-1.89436 4.19753,-3.45175 1.08096,-2.22508 1.96654,-2.68536 5.16666,-2.68536 2.18387,0 4.05695,-0.54317 4.3105,-1.25 0.26092,-0.72736 1.21881,0.0647 2.29099,1.89438 1.01343,1.72941 2.93034,3.80439 4.25981,4.61106 2.0753,1.25922 2.80901,1.27123 5.18712,0.0849 1.52344,-0.75999 3.25596,-1.96748 3.85004,-2.6833 0.81867,-0.98643 2.72024,-1.1078 7.85523,-0.50139 14.90362,1.76003 50.95625,4.84471 56.68444,4.84996 6.76209,0.006 12.17745,1.23092 15.13683,3.42332 1.93572,1.43404 1.93529,1.46116 -0.0462,2.92923 -2.01529,1.49309 -17.9833,6.64184 -20.59867,6.64184 -0.77408,0 -7.00709,2.7433 -13.85114,6.09622 -13.15903,6.44665 -18.37964,10.78752 -23.74592,19.74446 -2.37761,3.9685 -2.52358,4.82593 -1.70242,10 0.86419,5.44525 1.00553,5.64791 3.73663,5.3576 3.48004,-0.36991 9.7704,-3.48823 16.95244,-8.40382 3.23097,-2.21137 8.42064,-4.51125 12.87034,-5.70368 4.10094,-1.09897 11.02793,-3.4283 15.3933,-5.17628 12.07548,-4.83526 19.68577,-6.58952 34.25988,-7.8973 16.29229,-1.46197 25.30074,-4.21076 45.26485,-13.81185 7.9314,-3.81435 17.34572,-8.08605 20.92072,-9.49267 8.14412,-3.20439 21.21437,-5.71268 29.7677,-5.71268 l 6.54677,0 -0.79444,46.75 c -0.98372,57.8888 -0.89797,54.95867 -1.62982,55.69194 -0.67804,0.67936 -6.89855,-16.85166 -15.41445,-43.44194 -3.08253,-9.625 -5.9462,-18.37212 -6.3637,-19.43804 -0.5723,-1.46113 -1.42873,0.26138 -3.48038,7 -7.78245,25.56137 -15.58196,47.5868 -16.62326,46.94325 -0.40637,-0.25116 -1.01095,-1.93007 -1.34351,-3.73093 -0.33256,-1.80085 -2.65864,-10.02428 -5.16907,-18.27428 -2.51043,-8.25 -5.71725,-18.825 -7.12627,-23.5 -1.40902,-4.675 -2.83049,-8.93512 -3.1588,-9.46693 -0.32832,-0.53182 -1.14633,1.04318 -1.81779,3.5 -0.67146,2.45681 -3.76859,13.24193 -6.88251,23.96693 -3.11392,10.725 -6.22757,21.525 -6.91922,24 -0.69165,2.475 -2.06693,7.3125 -3.05618,10.75 l -1.79862,6.25 -16.11823,-0.0316 -16.11822,-0.0316 3,-2.52011 c 10.87813,-9.138 13.30818,-11.70609 16.1949,-17.11488 3.58094,-6.70952 7.3051,-19.70448 7.3051,-25.49015 0,-3.78027 -0.0329,-3.81166 -4,-3.81166 -3.60537,0 -4,0.24789 -4,2.51266 0,1.38196 -0.94078,5.76946 -2.09063,9.75 -1.14985,3.98054 -2.80609,9.92751 -3.68054,13.2155 -1.24221,4.67078 -2.60304,6.99128 -6.22254,10.61079 -8.58617,8.58616 -15.1469,8.55513 -19.98987,-0.0946 -2.40495,-4.29531 -2.51653,-5.22528 -2.5188,-20.99439 l -0.002,-16.5 -3.74762,-0.31037 -3.74762,-0.31036 0,19.39089 c 0,18.69421 0.0897,19.56763 2.49581,24.31036 1.3727,2.70571 2.4977,5.25698 2.5,5.66948 0.005,0.90795 -10.51395,0.99637 -14.87081,0.125 -1.85953,-0.37191 -3.125,-1.24213 -3.125,-2.14895 0,-1.3257 -1.82128,-1.43381 -14,-0.831 l -14,0.69296 0,-5.54401 0,-5.544 14,0 14,0 0,-3.34802 0,-3.34803 -12.61054,-0.59584 c -6.93579,-0.32772 -12.72052,-0.73361 -12.85495,-0.90198 -0.13442,-0.16837 0.0278,-2.55613 0.36054,-5.30613 l 0.60495,-5 12.25072,0 12.25072,0 -7.2e-4,-4.25 -0.001,-4.24996 -12.86043,0 c -7.07323,0 -14.94823,0.28617 -17.5,0.63592 l -4.63957,0.63593 0,18.86407 c 0,17.71518 -0.11313,18.86408 -1.85754,18.86408 -1.54271,0 -1.96753,-1.05933 -2.50645,-6.25 -1.04763,-10.09041 -5.52153,-21.5272 -14.76725,-37.75 -3.03063,-5.31763 -2.12957,-15.06449 1.77267,-19.1752 3.47416,-3.65977 11.36547,-7.8248 14.82533,-7.8248 2.39157,0 2.53324,-0.29568 2.53324,-5.2872 0,-4.75706 -0.2256,-5.30725 -2.25,-5.48728 -1.2375,-0.11005 -5.14857,0.80669 -8.69126,2.0372 -7.60702,2.64219 -16.39915,10.07726 -19.19557,16.23275 -2.24071,4.93226 -2.39644,14.17531 -0.35235,20.91346 1.9627,6.46985 1.97669,6.40756 -1.65004,7.34734 -3.11992,0.80845 -3.14146,0.85935 -3.50386,8.27859 -0.28076,5.74803 -1.04814,8.86198 -3.33618,13.53789 -4.40127,8.99458 -5.56359,9.74515 -15.81395,10.21185 l -8.70679,0.39642 -3.41067,-5.27589 c -2.71719,-4.20316 -3.73269,-7.25569 -4.99441,-15.01288 -1.5423,-9.48228 -1.65817,-9.74792 -4.42924,-10.15463 l -2.84552,-0.41763 0.67302,8.09001 c 1.73003,20.79571 2.49535,22.94128 9.50577,26.64964 2.86082,1.5133 3.10455,1.86005 1.33284,1.89616 -1.19252,0.0243 -2.76752,0.22356 -3.5,0.44278 -0.73249,0.21922 -2.40773,0.098 -3.72276,-0.26934 z m 224.04282,0.0501 c -3.91779,-0.37524 -4.07107,0.701 2.16179,-15.17932 7.73359,-19.70394 8.85361,-22.49079 9.16679,-22.80894 0.16727,-0.16992 1.56098,3.65508 3.09715,8.5 1.53616,4.84492 4.50963,13.22817 6.60772,18.62945 2.09808,5.40129 3.8147,10.26197 3.8147,10.80153 0,0.8937 -15.73647,0.92998 -24.84815,0.0573 z m -26.65185,-1.59089 -8,-1.1306 0.23891,-3.89132 c 0.1314,-2.14022 1.13996,-6.2996 2.24125,-9.24305 1.10129,-2.94346 2.72944,-8.60788 3.61812,-12.58761 0.88867,-3.97973 1.93548,-7.58124 2.32623,-8.00335 0.39075,-0.42211 1.9573,3.17789 3.48122,8 1.52393,4.82211 3.84807,11.69248 5.16477,15.26748 1.31669,3.575 2.68323,7.9625 3.03675,9.75 0.74374,3.76062 1.10527,3.70573 -12.10725,1.83845 z m -160.71275,-2.38048 c 4.0471,-3.95617 5.76811,-7.48976 8.21389,-16.8648 1.12538,-4.31374 2.5157,-9.57116 3.0896,-11.68315 l 1.04346,-3.83997 2.73592,4.33997 c 5.71765,9.06987 9.12988,17.81806 9.12988,23.40694 0,6.23702 0.80801,5.90284 -16.87557,6.97945 l -10.37557,0.63168 3.03839,-2.97012 z M 566.32076,490.84338 c 0,-15.89457 -0.28923,-33.62636 -0.64274,-39.40397 l -0.64274,-10.50475 4.3736,-0.58662 c 2.40548,-0.32265 4.4451,-0.50301 4.53249,-0.40082 0.21099,0.24673 1.31333,43.00218 1.62909,63.18581 l 0.2503,16 -4.75,0.30479 -4.75,0.30479 0,-28.89923 z m -226.18045,12.55681 c -0.25995,-1.81639 -1.05608,-2.2887 -4.26861,-2.53239 -4.3766,-0.33198 -5.58291,-0.97895 -3.8371,-2.05792 0.63576,-0.39292 1.4682,-3.06845 1.84987,-5.94562 l 0.69395,-5.23123 7.12117,0.0318 c 6.47948,0.0289 6.94625,0.16411 5.18004,1.5 -1.06762,0.80751 -2.80431,1.4682 -3.8593,1.4682 -1.75405,0 -1.88577,0.64169 -1.53944,7.5 0.20831,4.125 0.0638,7.5 -0.32115,7.5 -0.38493,0 -0.84368,-1.00478 -1.01943,-2.23284 z m -40.09861,-1.26716 c 0.42848,-1.65 0.77906,-6.01564 0.77906,-9.70142 l 0,-6.70142 6.5,0.20142 6.5,0.20142 0.50322,-4 c 0.80773,-6.42044 1.99678,-1.60786 1.99678,8.08179 0,4.94547 0.41253,8.41821 1,8.41821 0.55,0 1,0.43588 1,0.96862 0,0.53273 -0.5625,0.79303 -1.25,0.57844 -0.6875,-0.2146 -4.00806,-0.66666 -7.37902,-1.00459 -6.0871,-0.61021 -6.14374,-0.59193 -8.27906,2.67156 l -2.15004,3.28597 0.77906,-3 z m 61.96258,1.11765 c -0.37594,-0.97967 -0.68352,-4.82992 -0.68352,-8.55611 l 0,-6.77488 5.25,0.34673 c 5.48167,0.36203 16.98519,2.07465 20.00106,2.97772 3.00052,0.89848 3.99981,4.00308 2.32866,7.23472 -1.26154,2.43956 -2.26616,2.95819 -6.78035,3.50034 -2.91465,0.35004 -8.29937,0.64036 -11.96604,0.64514 -4.28773,0.006 -6.80933,0.4367 -7.06648,1.20813 -0.24338,0.73014 -0.66725,0.50251 -1.08333,-0.58179 z m -26.60356,-32.11765 c -0.0836,-0.55 -0.41391,-3.5875 -0.73398,-6.75 l -0.58194,-5.75 3.61798,0 c 3.53441,0 3.61798,0.0894 3.61798,3.87219 0,3.75525 0.12835,3.89792 4.25,4.72391 4.21803,0.84531 4.1997,0.85413 -2.43519,1.17202 -5.28788,0.25336 -6.779,0.67684 -7.134,2.02609 -0.24684,0.93819 -0.51723,1.25579 -0.60085,0.70579 z m 27.01972,-8.11506 c 0.1141,-7.8807 1.62585,-14.71052 1.80064,-8.13494 0.0988,3.71759 0.1357,3.75 4.26777,3.75 2.29244,0 7.12207,0.51441 10.7325,1.14314 5.17478,0.90115 7.15992,1.78063 9.37743,4.15449 1.54716,1.65623 2.45503,3.35621 2.0175,3.77773 -0.43754,0.42151 -6.98302,1.08772 -14.54552,1.48046 l -13.75,0.71407 0.0997,-6.88495 z m -86.02073,1.479 c -0.073,-4.28497 -0.344,-4.76183 -3.57895,-6.29692 -1.925,-0.91347 -3.5,-1.79869 -3.5,-1.96714 0,-0.16846 2.21168,-0.0938 4.91485,0.16596 4.55482,0.43766 4.94463,0.29871 5.32148,-1.89679 0.4023,-2.34383 0.41917,-2.33908 1.58515,0.44605 0.64818,1.5483 1.17852,4.8108 1.17852,7.25 0,4.02311 -0.22439,4.4349 -2.41667,4.4349 -1.32916,0 -2.64364,0.5625 -2.92105,1.25 -0.27741,0.6875 -0.53991,-0.83623 -0.58333,-3.38606 z m 22.42105,1.15631 -3,-0.78362 2.75,-0.11832 c 2.52195,-0.1085 2.75,-0.45002 2.75,-4.11831 l 0,-4 7.75,0.0153 c 4.2625,0.008 8.425,0.45153 9.25,0.98469 1.21963,0.78818 1.09073,0.97224 -0.68963,0.98469 -1.80504,0.0126 -2.24415,0.67398 -2.5,3.76531 l -0.31037,3.75001 -6.5,0.15194 c -3.575,0.0836 -7.85,-0.20069 -9.5,-0.63169 z m 0.19912,-24.59878 -0.75963,-6.07852 -5.46975,-2.26709 c -3.00835,-1.24689 -5.46974,-2.67405 -5.46974,-3.17147 0,-1.22225 0.15025,-1.19087 5.1408,1.07365 4.82478,2.1893 18.8592,2.90589 18.8592,0.96294 0,-0.58246 0.45,-0.7809 1,-0.44098 0.55,0.33992 1,2.84148 1,5.55902 l 0,4.94098 -6.43358,0 c -6.27007,0 -6.44214,0.0699 -6.77062,2.75 -0.20908,1.70596 -0.62544,0.44228 -1.09668,-3.32853 z m 42.18246,3.32853 c -0.0651,-1.2375 -0.0651,-2.5875 0,-3 0.0651,-0.4125 -3.10658,-0.75 -7.04825,-0.75 -6.52332,0 -8.75668,-0.75666 -4.17496,-1.41448 1.26151,-0.18112 1.94034,-1.26 2.15499,-3.42497 l 0.31336,-3.16055 6.99566,0 c 4.40912,0 6.76715,0.36973 6.37762,1 -0.33992,0.55 -1.4488,1 -2.46419,1 -1.6502,0 -1.78841,0.63687 -1.30209,6 0.29923,3.3 0.25656,6 -0.0948,6 -0.35139,0 -0.69218,-1.0125 -0.75731,-2.25 z m -70.36427,-8 c -0.36871,-2.8875 -1.53593,-9.68613 -2.59384,-15.10806 -1.05791,-5.42193 -1.92347,-13.62733 -1.92347,-18.23422 0,-7.72757 0.21294,-8.61362 2.75,-11.44267 2.43254,-2.71252 2.96242,-2.9103 4.59009,-1.71332 1.62642,1.19606 1.94489,3.72763 2.74248,21.80073 0.49632,11.24615 1.34504,22.24754 1.88605,24.44754 1.38241,5.62146 1.4459,5.5 -2.87478,5.5 l -3.90616,0 -0.67037,-5.25 z m 93.48269,0.68272 0,-4.72619 7.65088,0.64673 c 4.20798,0.35571 10.05798,0.64674 13,0.64674 5.07196,0 5.34912,0.13259 5.34912,2.55902 0,1.40746 -0.3375,2.36506 -0.75,2.12799 -0.75456,-0.43364 -16.54549,1.56007 -22.2095,2.80409 l -3.0405,0.66781 0,-4.72619 z m 186.5,2.06104 c -0.55,-0.19159 -8.65,-2.39027 -18,-4.88596 -14.74798,-3.93652 -22.92637,-5.69919 -49,-10.56088 -2.75,-0.51276 -7.475,-1.21051 -10.5,-1.55054 -9.15449,-1.02904 -40.14705,-5.50403 -45.75,-6.60581 -2.8875,-0.5678 -5.25,-1.45046 -5.25,-1.96147 0,-0.511 0.45,-0.9291 1,-0.9291 2.15014,0 0.77788,-3.08301 -4.29424,-9.64776 -6.42477,-8.31547 -11.70576,-16.57306 -11.70576,-18.30363 0,-0.70197 -0.87121,-2.91257 -1.93602,-4.91246 -4.90867,-9.21926 -10.18579,-23.07369 -11.61444,-30.49231 -0.86257,-4.47911 -2.20481,-11.10589 -2.98276,-14.72618 -0.77794,-3.62029 -2.10884,-11.04529 -2.95754,-16.5 -4.37527,-28.12019 -7.46643,-38.33079 -15.98834,-52.81213 l -2.88027,-4.89446 13.92969,0.77798 c 7.66132,0.42789 50.19369,0.69183 94.51636,0.58653 l 80.58668,-0.19146 0.66914,54.80794 c 0.36802,30.14437 1.13163,63.80794 1.6969,74.80794 0.56527,11 1.35246,26.4125 1.74931,34.25 l 0.72156,14.25 -5.50513,-0.079 c -3.02783,-0.0434 -5.95514,-0.2357 -6.50514,-0.42729 z M 291.87963,418.16483 c 1.06762,-0.8075 2.50363,-1.4825 3.19113,-1.5 0.91399,-0.0232 1.25,-2.70241 1.25,-9.9667 0,-13.65563 1.9447,-17.95882 8.14962,-18.0333 2.48442,-0.0298 2.74708,0.42023 4.21276,7.2182 0.85972,3.9875 1.8544,10.42488 2.2104,14.30528 l 0.64727,7.05528 -8.97336,1.19472 c -4.93535,0.6571 -9.79587,1.19472 -10.80116,1.19472 -1.71892,0 -1.71217,-0.0874 0.11334,-1.4682 z m 45.19113,-3.26027 -3.75,-0.39226 0.0318,-12.18964 c 0.0241,-9.23041 0.39476,-12.6698 1.5269,-14.16755 1.17103,-1.54919 1.86394,-1.74526 3.19672,-0.90456 2.07596,1.30948 2.91735,5.07982 3.82331,17.13248 0.64056,8.52194 0.8616,9.25121 2.80828,9.26531 1.73074,0.0126 1.84163,0.19068 0.61299,0.98469 -0.825,0.53316 -2.175,0.90062 -3,0.81658 -0.825,-0.084 -3.1875,-0.3293 -5.25,-0.54505 z m 27.66882,-3.73894 c -0.3406,-1.35708 -0.44936,-13.84458 -0.24168,-27.75 0.32387,-21.68558 0.62633,-25.74497 2.12591,-28.53259 0.96157,-1.7875 2.10256,-3.25 2.53554,-3.25 2.48,0 6.26964,6.75222 10.10241,18 2.3427,6.875 5.7572,15.2 7.58778,18.5 3.88005,6.9946 11.81329,16.14297 18.76158,21.63528 l 4.88924,3.86472 -22.57075,0 -22.57075,0 -0.61928,-2.46741 z m 123.3976,-159.28259 -0.31642,-2.75 -12.18421,-0.88084 -12.18421,-0.88085 -0.51458,-3.61915 c -0.28303,-1.99054 -0.65013,-13.06916 -0.81579,-24.61916 l -0.30121,-21 19.75,-0.27114 19.75,-0.27114 0,12.02114 0,12.02114 -4.88337,0 c -4.21891,0 -4.96541,0.30615 -5.48634,2.25 -1.34428,5.01614 -0.8841,5.74909 3.61971,5.76531 2.3375,0.008 4.73786,0.34592 5.33413,0.75 0.67274,0.4559 1.09498,5.19335 1.11273,12.48469 l 0.0286,11.75 -6.29631,0 c -6.12532,0 -6.3049,-0.0747 -6.61273,-2.75 z m 48.85025,2.08333 c -0.36667,-0.36666 -0.66604,-1.82916 -0.66528,-3.25 l 0.001,-2.58333 -12.37128,0.32879 -12.37129,0.32879 -0.98369,-8.82879 c -0.54103,-4.85584 -0.76603,-9.21806 -0.49999,-9.69384 0.26698,-0.47746 7.40229,-0.5408 15.92504,-0.14136 l 15.44134,0.72368 -0.32146,-3.35864 -0.32106,-3.35863 -14.87969,-0.89965 -14.87969,-0.89965 0.64835,-6.97604 c 0.3566,-3.83682 0.92691,-7.42674 1.26735,-7.9776 0.39043,-0.63172 4.35306,-0.76489 10.73134,-0.36063 5.56179,0.35251 10.64132,0.29144 11.28784,-0.13573 0.64653,-0.42716 1.32153,-2.57081 1.5,-4.76368 l 0.3245,-3.98702 7.7889,0.12223 c 4.2839,0.0672 7.94506,0.29223 8.13591,0.5 0.19086,0.20777 0.67455,12.86527 1.07488,28.12777 l 0.72786,27.75 -8.44711,0 c -4.64591,0 -8.74711,-0.3 -9.11377,-0.66667 z m -173.45755,-2.89941 c -1.22974,-0.86135 -3.08701,-3.23441 -4.12727,-5.27347 -2.26602,-4.44178 -3.78309,-13.16045 -2.28995,-13.16045 0.82377,0 11.50958,13.75933 14.56168,18.75 1.1417,1.86686 -5.38978,1.61337 -8.14446,-0.31608 z m 13.44982,-1.68392 c -1.34356,-1.7875 -5.04462,-7.3 -8.22457,-12.25 -3.17996,-4.95 -7.0037,-10.57678 -8.49721,-12.50395 l -2.71546,-3.50395 5.97903,-7.49605 c 17.05408,-21.3811 15.56979,-19.99605 21.42875,-19.99605 2.88887,0 5.52134,0.43502 5.84995,0.96671 0.3286,0.53169 0.29515,4.97128 -0.0743,9.86575 l -0.67179,8.89903 -7.46353,0.56447 c -4.10495,0.31045 -7.58507,0.70837 -7.7336,0.88425 -0.14854,0.17588 -0.49547,2.42001 -0.77095,4.98694 l -0.50088,4.66716 5.81203,0.67455 c 3.19661,0.37101 7.18713,0.37254 8.86782,0.003 l 3.05577,-0.67117 0,14.07945 0,14.07946 -5.94911,0 c -5.54405,0 -6.11543,-0.22128 -8.39195,-3.25 z m 25.04962,1.9329 c -0.27798,-0.72441 -0.56838,-7.24941 -0.64534,-14.5 l -0.13992,-13.1829 9.03835,0 c 7.89267,0 9.05453,-0.22183 9.16597,-1.75 0.0702,-0.9625 0.23178,-2.72128 0.35907,-3.90839 0.2151,-2.0059 -0.34148,-2.20526 -7.87762,-2.82161 -12.45415,-1.01857 -11.60907,-0.21146 -11.60907,-11.08739 l 0,-9.43261 10.75,0.011 c 5.9125,0.006 12.47653,0.29627 14.58674,0.64492 l 3.83674,0.63391 -0.33674,4.8557 -0.33674,4.85571 3.64301,-6.2e-4 c 3.92895,-6.8e-4 4.85699,-1.13947 4.85699,-5.95997 0,-4.00233 1.65345,-4.75778 9,-4.11201 l 6.5,0.57135 -0.0469,5 c -0.0258,2.75 -0.42924,15.50919 -0.89655,28.35375 l -0.84965,23.35376 -7.60345,-0.70398 c -4.1819,-0.38719 -7.76774,-0.86066 -7.96853,-1.05216 -0.20079,-0.1915 -0.29068,-9.1464 -0.19975,-19.89978 l 0.16534,-19.55159 -3.50494,0 c -4.20259,0 -3.99535,-0.8421 -5.66037,23 -0.63376,9.075 -1.355,16.8375 -1.60276,17.25 -0.24776,0.4125 -5.32577,0.75 -11.28447,0.75 -8.03908,0 -10.96438,-0.33978 -11.33941,-1.3171 z m -142.25989,-19.4329 c 0.96166,-31.37352 1.42551,-36.25 3.44806,-36.25 0.94445,0 2.14156,-1.12896 2.66023,-2.50879 l 0.94304,-2.50879 17.75,-0.45005 17.75,-0.45005 0,3.43979 c 0,4.43345 -1.14701,4.72477 -19.16498,4.86759 l -13.91565,0.1103 0.52236,5 c 1.45836,13.95934 1.55224,20.95355 0.4501,33.53324 l -1.20518,13.75593 -3.59333,0.59441 c -1.97632,0.32692 -4.19108,0.59936 -4.92167,0.60541 -1.08027,0.009 -1.21529,-3.67761 -0.72298,-19.73899 z m 57.55133,18.83313 c 0,-0.50428 6.81076,-7.44273 15.13502,-15.41878 l 15.13502,-14.50191 -6.38502,-8.1869 c -3.51176,-4.5028 -8.52252,-10.79274 -11.13502,-13.97764 -2.6125,-3.18491 -4.75,-6.06235 -4.75,-6.39432 0,-0.75321 6.80443,-0.76902 9.5,-0.0221 1.1,0.30481 4.025,3.30696 6.5,6.67144 8.24944,11.21418 9.15404,13.23517 9.73809,21.75634 l 0.53913,7.86575 -10.88861,11.53962 -10.88861,11.53962 -6.25,0.0229 c -3.4375,0.0126 -6.25,-0.38974 -6.25,-0.89402 z m -89.60606,-0.8308 c -1.55418,-1.05714 -2.67646,-31.91708 -1.80936,-49.7527 l 0.70493,-14.49963 4.10524,0.011 c 5.74159,0.0154 11.60525,1.08645 11.60525,2.11983 0,0.47804 -1.07685,0.86916 -2.39301,0.86916 -2.63164,0 -3.60699,1.64454 -3.60699,6.08179 l 0,2.91821 7.5166,0 7.51661,0 -0.26661,26.25 -0.2666,26.25 -11,0.25233 c -6.05,0.13878 -11.49773,-0.0862 -12.10606,-0.5 z m 58.94618,-0.80837 c -1.02712,-2.67664 0.27943,-43.46351 1.42913,-44.61321 0.70115,-0.70115 7.2969,-0.80118 20.1932,-0.30623 16.1328,0.61916 19.06409,0.96392 18.59474,2.18704 -0.30645,0.79861 -0.55719,2.24387 -0.55719,3.21169 0,1.54233 -0.58669,1.66311 -4.75,0.97783 -2.6125,-0.43002 -9.31002,-0.80868 -14.88337,-0.84147 -11.57268,-0.0681 -11.32705,-0.27774 -11.35298,9.69039 l -0.0137,5.25 11.32681,0 11.3268,0 -0.44188,3.01076 -0.44189,3.01076 -10.73171,-0.6518 -10.73172,-0.6518 -0.6532,3.26604 c -0.35927,1.79632 -0.65321,4.73104 -0.65321,6.52159 l 0,3.25555 10.35603,0.70587 10.35602,0.70586 -0.64566,3.16359 -0.64567,3.16358 -13.23055,0.27917 c -11.42023,0.24096 -13.31532,0.0583 -13.85005,-1.33521 z m 67.34331,-39.17765 c -1.0238,-1.72516 -1.81279,-11.40087 -1.16877,-14.33307 l 0.69127,-3.1473 6.84336,0.38669 c 3.76384,0.21267 7.14214,0.68547 7.50733,1.05066 0.36519,0.36518 -2.10022,4.04678 -5.47867,8.18131 -6.54865,8.01421 -7.67694,9.07089 -8.39452,7.86171 z m 101.96033,-16.98232 c -1.48024,-0.37604 -1.73344,-1.08557 -1.25,-3.50278 0.33343,-1.66716 0.60624,-3.42496 0.60624,-3.90621 0,-0.48125 1.15087,-0.875 2.5575,-0.875 2.38381,0 2.53661,0.28334 2.25,4.17228 -0.31624,4.29084 -0.95922,4.92579 -4.16374,4.11171 z m 20.68529,-1.20318 c -4.49403,-0.31945 -8.44412,-0.8559 -8.77798,-1.19212 -0.33387,-0.33622 -0.15557,-1.79872 0.3962,-3.25 l 1.00323,-2.63869 22.77475,-0.0954 c 34.65674,-0.14524 52.23784,0.0764 58.02475,0.73154 5.18223,0.58668 5.25,0.63805 5.25,3.97913 l 0,3.38478 -35.25,-0.16919 c -19.3875,-0.0931 -38.92693,-0.43056 -43.42095,-0.75 z"
       id="path4203"
       inkscape:connector-curvature="0" />
  </g>
</svg>
